<?xml version="1.0" encoding="utf-8"?>
<!-- Generator: Adobe Illustrator 17.0.0, SVG Export Plug-In . SVG Version: 6.00 Build 0)  -->
<!DOCTYPE svg PUBLIC "-//W3C//DTD SVG 1.1//EN" "http://www.w3.org/Graphics/SVG/1.1/DTD/svg11.dtd">
<svg version="1.1" id="Layer_1" xmlns="http://www.w3.org/2000/svg" xmlns:xlink="http://www.w3.org/1999/xlink" x="0px" y="0px"
	 width="197.938px" height="37.096px" viewBox="0 0 197.938 37.096" enable-background="new 0 0 197.938 37.096"
	 xml:space="preserve">
<g>
	<path fill="#010101" d="M17.578,0c0.639,1.1,0.911,2.119,0.975,3.144c0.136,2.001-0.52,4.082-2.081,5.644
		c-1.262,1.262-3.151,1.945-4.439,1.974c0.849,2.547,0.11,5.642-2.027,7.779c-1.617,1.617-3.781,2.41-5.891,2.384
		c-1.344,0-2.689-0.327-4.114-1.182v17.353h37.097V0H17.578z"/>
</g>
<g>
	<g>
		<g>
			<path fill="#010101" d="M59.682,10.274c1.883,0,2.931,0.453,3.741,1.167c0.929,0.81,1.549,2.002,1.549,3.36
				c0,1.096-0.524,2.216-1.072,2.788c1.477,0.739,2.502,2.407,2.502,4.265c0,1.406-0.596,2.692-1.525,3.598
				c-0.929,0.929-2.216,1.501-4.36,1.501h-6.505V10.274H59.682z M57.227,16.707h2.264c1.001,0,1.453-0.238,1.787-0.596
				c0.286-0.31,0.476-0.739,0.476-1.191c0-0.453-0.19-0.882-0.476-1.192c-0.334-0.357-0.786-0.596-1.787-0.596h-2.264V16.707z
				 M60.444,24.094c1.12,0,1.74-0.286,2.144-0.739c0.381-0.405,0.596-0.929,0.596-1.525c0-0.596-0.214-1.12-0.596-1.525
				c-0.405-0.453-1.024-0.739-2.144-0.739h-3.217v4.527H60.444z"/>
		</g>
		<g>
			<path fill="#010101" d="M71.506,10.274h3.216v16.679h-3.216V10.274z"/>
		</g>
		<g>
			<path fill="#010101" d="M91.262,10.274v2.859h-4.408v13.82h-3.217v-13.82h-4.408v-2.859H91.262z"/>
		</g>
		<g>
			<path fill="#010101" d="M96.626,22.497c0.953,1.048,2.407,1.835,3.932,1.835c1.43,0,2.43-0.881,2.43-2.097
				c0-2.144-3.098-2.407-5.337-3.717c-1.311-0.762-2.359-1.906-2.359-3.789c0-2.978,2.74-4.694,5.504-4.694
				c1.692,0,3.264,0.405,4.837,1.573l-1.668,2.383c-0.667-0.619-1.787-1.096-2.883-1.096c-1.215,0-2.574,0.524-2.574,1.811
				c0,2.693,7.696,1.859,7.696,7.482c0,2.955-2.645,5.004-5.647,5.004c-2.24,0-4.313-0.929-6.028-2.502L96.626,22.497z"/>
		</g>
	</g>
	<g>
		<g>
			<path fill="#010101" d="M135.967,10.274c1.883,0,2.931,0.453,3.741,1.167c0.929,0.81,1.549,2.002,1.549,3.36
				c0,1.096-0.524,2.216-1.072,2.788c1.477,0.739,2.502,2.407,2.502,4.265c0,1.406-0.596,2.692-1.525,3.598
				c-0.929,0.929-2.216,1.501-4.36,1.501h-6.505V10.274H135.967z M133.513,16.707h2.264c1.001,0,1.453-0.238,1.787-0.596
				c0.286-0.31,0.476-0.739,0.476-1.191c0-0.453-0.19-0.882-0.476-1.192c-0.334-0.357-0.786-0.596-1.787-0.596h-2.264V16.707z
				 M136.73,24.094c1.12,0,1.74-0.286,2.144-0.739c0.381-0.405,0.596-0.929,0.596-1.525c0-0.596-0.214-1.12-0.596-1.525
				c-0.405-0.453-1.024-0.739-2.144-0.739h-3.217v4.527H136.73z"/>
		</g>
		<g>
			<path fill="#010101" d="M147.791,10.274h3.216v16.679h-3.216V10.274z"/>
		</g>
		<g>
			<path fill="#010101" d="M167.548,10.274v2.859h-4.408v13.82h-3.217v-13.82h-4.408v-2.859H167.548z"/>
		</g>
		<g>
			<path fill="#010101" d="M175.297,13.133v3.455h5.123v2.859h-5.123v4.646h7.029v2.859h-10.246V10.274h10.007v2.859H175.297z"/>
		</g>
		<g>
			<path fill="#010101" d="M188.36,22.497c0.953,1.048,2.407,1.835,3.932,1.835c1.43,0,2.43-0.881,2.43-2.097
				c0-2.144-3.098-2.407-5.337-3.717c-1.311-0.762-2.359-1.906-2.359-3.789c0-2.978,2.74-4.694,5.504-4.694
				c1.692,0,3.264,0.405,4.837,1.573l-1.668,2.383c-0.667-0.619-1.787-1.096-2.883-1.096c-1.215,0-2.574,0.524-2.574,1.811
				c0,2.693,7.696,1.859,7.696,7.482c0,2.955-2.645,5.004-5.647,5.004c-2.24,0-4.313-0.929-6.028-2.502L188.36,22.497z"/>
		</g>
	</g>
	<g>
		
			<rect x="116.28" y="11.467" transform="matrix(0.7071 0.7071 -0.7071 0.7071 47.8355 -77.8046)" fill="#010101" width="3.097" height="14.737"/>
	</g>
	<g>
		
			<rect x="110.46" y="17.287" transform="matrix(0.7071 0.7071 -0.7071 0.7071 47.8283 -77.7992)" fill="#010101" width="14.737" height="3.097"/>
	</g>
</g>
</svg>
